<svg width="354" height="420" viewBox="0 0 354 420" fill="none" xmlns="http://www.w3.org/2000/svg">
<path d="M0 243.486L229.335 376.051V420L0 287.435V243.486Z" fill="#5C528E"/>
<path d="M353.104 304.155L229.336 375.45V419.741L353.104 348.444V304.155Z" fill="#3B4378"/>
<rect width="143.176" height="264.527" transform="matrix(0.866044 -0.499967 0.866044 0.499967 0 243.558)" fill="#2273AB"/>
<path d="M41.2394 245.679C38.2057 238.095 40.8391 230.835 54.2836 225.658C54.2836 225.658 143.321 192.161 165.007 229.602C169.553 237.449 175.691 242.816 172.895 251.443C169.126 263.069 151.967 252.087 142.863 260.24C138.112 264.494 136.189 270.554 133.459 273.588C130.728 276.621 114.347 285.277 101.303 283.598C88.1008 281.899 77.3382 274.801 72.4847 265.397C67.6312 255.993 44.273 253.263 41.2394 245.679Z" fill="#6F7CA6"/>
<path d="M53.9111 242.832L153.499 216.486L173.217 222.25L179.587 244.394L106.998 274.078L53.9111 242.832Z" fill="#19607E"/>
<mask id="mask0" mask-type="alpha" maskUnits="userSpaceOnUse" x="40" y="211" width="134" height="73">
<path d="M41.2394 245.679C38.2057 238.095 40.8391 230.835 54.2836 225.658C54.2836 225.658 143.321 192.161 165.007 229.602C169.553 237.449 175.691 242.816 172.895 251.443C169.126 263.069 151.967 252.087 142.863 260.24C138.112 264.494 136.189 270.554 133.459 273.588C130.728 276.621 114.347 285.277 101.303 283.598C88.1008 281.899 77.3382 274.801 72.4847 265.397C67.6312 255.993 44.273 253.263 41.2394 245.679Z" fill="#D4AE61"/>
</mask>
<g mask="url(#mask0)">
<path d="M54.5147 242.71L154.103 216.364L173.82 222.128L180.191 244.272L107.601 273.956L54.5147 242.71Z" fill="#3B4378"/>
</g>
<path d="M105.264 73L160.777 125.783L106.78 157.029L105.264 73Z" fill="#3F4B80"/>
<path d="M105.263 73.3032L52.7825 125.783L106.779 157.029L105.263 73.3032Z" fill="#736B9F"/>
<path d="M52.7832 125.783L106.78 157.029V274.123L52.7832 242.877V125.783Z" fill="#887CAC"/>
<g filter="url(#filter0_d)">
<path d="M73.4121 174.655L84.3325 181.159V220.429L73.4121 213.926V174.655Z" fill="#FAF0DE"/>
</g>
<path d="M160.775 125.783L106.779 157.029V274.123L160.775 242.877V125.783Z" fill="#5B658B"/>
<path d="M176.46 310.031L229.546 282.122L288.182 283.83L304.563 310.031L229.546 341.276L176.46 310.031Z" fill="#19607E"/>
<path d="M176.156 252.09L229.546 283.032V341.276L176.156 310.334V252.09Z" fill="#887CAC"/>
<path d="M209.613 208.902L263.306 239.955L229.85 283.316L176.156 252.262L209.613 208.902Z" fill="#736B9F"/>
<path d="M283.238 251.979L229.545 283.032V341.389L283.238 310.334V251.979Z" fill="#5B658B"/>
<g filter="url(#filter1_d)">
<path d="M264.281 280.673L257.001 285.242V312.828L264.281 308.26V280.673Z" fill="#FAF0DE"/>
</g>
<path d="M263.309 239.844L283.242 252.09L229.549 283.032L263.309 239.844Z" fill="#5B658B"/>
<circle cx="104.5" cy="20.5" r="20.5" fill="#2273AB"/>
<path d="M85.5 27.5L105.5 62L123.5 27.5H85.5Z" fill="#2273AB"/>
<circle cx="104.5" cy="20.5" r="15.5" fill="#FAF0DE"/>
<path d="M104.636 9.99023C105.292 9.99023 105.847 10.2223 106.301 10.6865C106.755 11.1406 106.982 11.6906 106.982 12.3364C106.982 12.9823 106.75 13.5322 106.286 13.9863C105.832 14.4404 105.282 14.6675 104.636 14.6675C103.99 14.6675 103.44 14.4404 102.986 13.9863C102.532 13.5322 102.305 12.9823 102.305 12.3364C102.305 11.6906 102.532 11.1406 102.986 10.6865C103.44 10.2223 103.99 9.99023 104.636 9.99023ZM106.755 16.8472V28.0635C106.755 29.0625 106.871 29.7033 107.104 29.9858C107.336 30.2583 107.79 30.4147 108.466 30.4551V31H100.822V30.4551C101.447 30.4349 101.912 30.2533 102.214 29.9102C102.416 29.6781 102.517 29.0625 102.517 28.0635V19.7988C102.517 18.7998 102.401 18.1641 102.169 17.8916C101.937 17.609 101.488 17.4476 100.822 17.4072V16.8472H106.755Z" fill="#2273AB"/>
<defs>
<filter id="filter0_d" x="64.4121" y="165.655" width="28.9204" height="63.7747" filterUnits="userSpaceOnUse" color-interpolation-filters="sRGB">
<feFlood flood-opacity="0" result="BackgroundImageFix"/>
<feColorMatrix in="SourceAlpha" type="matrix" values="0 0 0 0 0 0 0 0 0 0 0 0 0 0 0 0 0 0 127 0"/>
<feOffset/>
<feGaussianBlur stdDeviation="4.5"/>
<feColorMatrix type="matrix" values="0 0 0 0 1 0 0 0 0 1 0 0 0 0 1 0 0 0 1 0"/>
<feBlend mode="normal" in2="BackgroundImageFix" result="effect1_dropShadow"/>
<feBlend mode="normal" in="SourceGraphic" in2="effect1_dropShadow" result="shape"/>
</filter>
<filter id="filter1_d" x="248" y="271.673" width="25.2805" height="50.1554" filterUnits="userSpaceOnUse" color-interpolation-filters="sRGB">
<feFlood flood-opacity="0" result="BackgroundImageFix"/>
<feColorMatrix in="SourceAlpha" type="matrix" values="0 0 0 0 0 0 0 0 0 0 0 0 0 0 0 0 0 0 127 0"/>
<feOffset/>
<feGaussianBlur stdDeviation="4.5"/>
<feColorMatrix type="matrix" values="0 0 0 0 1 0 0 0 0 1 0 0 0 0 1 0 0 0 1 0"/>
<feBlend mode="normal" in2="BackgroundImageFix" result="effect1_dropShadow"/>
<feBlend mode="normal" in="SourceGraphic" in2="effect1_dropShadow" result="shape"/>
</filter>
</defs>
</svg>
