<svg width="40" height="40" viewBox="0 0 40 40" fill="none" xmlns="http://www.w3.org/2000/svg">
<circle cx="19.8381" cy="19.8381" r="19.8381" fill="#F9EFE2"/>
<path d="M25.253 28.0382C25.253 28.0382 24.5519 27.1987 23.9676 26.4568C26.5189 25.7345 27.4927 24.1335 27.4927 24.1335C26.6942 24.6607 25.9346 25.0317 25.253 25.2854C24.2792 25.6954 23.3444 25.9687 22.429 26.1249C20.5593 26.4764 18.8454 26.3787 17.3848 26.1054C16.2746 25.8907 15.3203 25.5783 14.5218 25.2659C14.0739 25.0902 13.587 24.8755 13.1001 24.6022C13.0417 24.563 12.9832 24.5435 12.9248 24.5045C12.8858 24.485 12.8664 24.4655 12.8469 24.446C12.4963 24.2507 12.3016 24.114 12.3016 24.114C12.3016 24.114 13.2364 25.6759 15.7098 26.4177C15.1256 27.1597 14.405 28.0382 14.405 28.0382C10.1008 27.9015 8.46484 25.0707 8.46484 25.0707C8.46484 18.7843 11.2694 13.6888 11.2694 13.6888C14.0739 11.5803 16.7421 11.6388 16.7421 11.6388L16.9368 11.8731C13.4312 12.8883 11.8147 14.4306 11.8147 14.4306C11.8147 14.4306 12.2431 14.1963 12.9637 13.8645C15.0477 12.9469 16.7031 12.6931 17.3848 12.6345C17.5016 12.615 17.599 12.5955 17.7159 12.5955C18.9039 12.4393 20.2477 12.4002 21.65 12.5564C23.5001 12.7712 25.4867 13.3178 27.5122 14.4306C27.5122 14.4306 25.9736 12.9664 22.6627 11.9512L22.9353 11.6388C22.9353 11.6388 25.6035 11.5803 28.408 13.6888C28.408 13.6888 31.2126 18.7843 31.2126 25.0707C31.2126 25.0707 29.5571 27.9015 25.253 28.0382ZM16.1967 18.9209C15.0866 18.9209 14.2102 19.8971 14.2102 21.088C14.2102 22.2789 15.1061 23.255 16.1967 23.255C17.3069 23.255 18.1832 22.2789 18.1832 21.088C18.2027 19.8971 17.3069 18.9209 16.1967 18.9209ZM23.3054 18.9209C22.1953 18.9209 21.3188 19.8971 21.3188 21.088C21.3188 22.2789 22.2148 23.255 23.3054 23.255C24.4155 23.255 25.2919 22.2789 25.2919 21.088C25.2919 19.8971 24.4155 18.9209 23.3054 18.9209Z" fill="#00AFBD"/>
</svg>
