<svg width="75" height="75" viewBox="0 0 75 75" fill="none" xmlns="http://www.w3.org/2000/svg">
<circle cx="37.5" cy="37.5" r="37.5" fill="#F9EFE2"/>
<path d="M47.7346 53C47.7346 53 46.4093 51.4131 45.3048 50.0107C50.1276 48.6453 51.9683 45.6191 51.9683 45.6191C50.459 46.6155 49.0231 47.3168 47.7346 47.7965C45.8939 48.5715 44.1268 49.0881 42.3965 49.3834C38.8622 50.0477 35.6224 49.8631 32.8614 49.3465C30.7628 48.9405 28.9589 48.35 27.4495 47.7596C26.6027 47.4274 25.6824 47.0215 24.762 46.5049C24.6515 46.4309 24.5411 46.3941 24.4307 46.3203C24.357 46.2834 24.3202 46.2465 24.2834 46.2096C23.6207 45.8405 23.2526 45.5822 23.2526 45.5822C23.2526 45.5822 25.0197 48.5346 29.6952 49.9369C28.5908 51.3393 27.2286 53 27.2286 53C19.0925 52.7416 16 47.3906 16 47.3906C16 35.5073 21.3014 25.8753 21.3014 25.8753C26.6027 21.8896 31.6465 22.0003 31.6465 22.0003L32.0146 22.4432C25.3878 24.3622 22.3322 27.2776 22.3322 27.2776C22.3322 27.2776 23.1421 26.8348 24.5043 26.2074C28.4435 24.4729 31.5728 23.9931 32.8614 23.8824C33.0822 23.8455 33.2663 23.8086 33.4872 23.8086C35.7329 23.5134 38.2731 23.4396 40.9239 23.7348C44.4212 24.1408 48.1764 25.1741 52.0051 27.2776C52.0051 27.2776 49.0968 24.5098 42.8381 22.5908L43.3535 22.0003C43.3535 22.0003 48.3973 21.8896 53.6986 25.8753C53.6986 25.8753 59 35.5073 59 47.3906C59 47.3906 55.8707 52.7416 47.7346 53ZM30.6156 35.7656C28.5171 35.7656 26.8604 37.6108 26.8604 39.862C26.8604 42.1133 28.5539 43.9584 30.6156 43.9584C32.7141 43.9584 34.3707 42.1133 34.3707 39.862C34.4075 37.6108 32.7141 35.7656 30.6156 35.7656ZM44.053 35.7656C41.9546 35.7656 40.2979 37.6108 40.2979 39.862C40.2979 42.1133 41.9915 43.9584 44.053 43.9584C46.1516 43.9584 47.8082 42.1133 47.8082 39.862C47.8082 37.6108 46.1516 35.7656 44.053 35.7656Z" fill="#2C2E33"/>
</svg>
