<svg width="75" height="75" viewBox="0 0 75 75" fill="none" xmlns="http://www.w3.org/2000/svg">
<circle cx="37.5" cy="37.5" r="37.5" fill="#F9EFE2"/>
<path fill-rule="evenodd" clip-rule="evenodd" d="M43.9991 28H47.9991V37.9039C47.9994 37.9359 47.9995 37.9679 47.9995 38C47.9995 38.0132 47.9995 38.0265 47.9995 38.0397C47.9994 38.0569 47.9993 38.0741 47.9991 38.0913C48.0038 42.9549 48.3881 44 49.9991 44C52.6077 44 53.9991 42.7663 53.9991 38C53.9991 27.4213 48.6932 22 37.9993 22C31.0713 22.0009 24.9308 26.4605 22.7868 33.0485C20.6428 39.6365 22.9823 46.8559 28.5829 50.9342C34.1835 55.0124 41.7725 55.0228 47.3842 50.96L49.73 54.2C42.7153 59.2785 33.229 59.2655 26.2283 54.1677C19.2276 49.0699 16.3031 40.0456 18.9832 31.8106C21.6632 23.5757 29.3387 18.0011 37.9991 18C50.9218 18 57.9991 25.2312 57.9991 38C57.9991 45.0898 54.7169 48 49.9991 48C47.3115 48 45.7734 47.1335 44.9289 45.21C43.1315 46.9378 40.6896 48 37.9995 48C32.4767 48 27.9995 43.5228 27.9995 38C27.9995 32.4772 32.4767 28 37.9995 28C40.2506 28 42.3279 28.7438 43.9991 29.9989V28ZM43.9995 38C43.9995 41.3137 41.3133 44 37.9995 44C34.6858 44 31.9995 41.3137 31.9995 38C31.9995 34.6863 34.6858 32 37.9995 32C41.3133 32 43.9995 34.6863 43.9995 38Z" fill="#2C2E33"/>
</svg>
