<svg width="40" height="40" viewBox="0 0 40 40" fill="none" xmlns="http://www.w3.org/2000/svg">
<circle cx="19.8381" cy="19.8381" r="19.8381" fill="#F9EFE2"/>
<path fill-rule="evenodd" clip-rule="evenodd" d="M23.2774 14.8126H25.3935V20.0541L25.3937 20.1026L25.3935 20.1488C25.3958 22.7237 25.599 23.2769 26.4515 23.2769C27.8315 23.2769 28.5676 22.6243 28.5676 20.1028C28.5676 14.5065 25.7606 11.6385 20.1034 11.6385C16.4384 11.639 13.19 13.9982 12.0557 17.4834C10.9215 20.9685 12.1592 24.7877 15.122 26.9452C18.0848 29.1026 22.0995 29.1082 25.0682 26.9588L26.3091 28.6729C22.5982 31.3595 17.5798 31.3526 13.8763 28.6558C10.1728 25.959 8.62577 21.185 10.0435 16.8285C11.4613 12.4721 15.5218 9.52304 20.1033 9.52246C26.9396 9.52246 30.6836 13.3479 30.6836 20.1028C30.6836 23.8534 28.9473 25.393 26.4515 25.393C25.0296 25.393 24.2159 24.9345 23.7692 23.9169C22.8184 24.8309 21.5266 25.3928 20.1035 25.3928C17.1818 25.3928 14.8133 23.0243 14.8133 20.1026C14.8133 17.181 17.1818 14.8125 20.1035 14.8125C21.2943 14.8125 22.3933 15.2059 23.2774 15.87V14.8126ZM23.2772 20.1027C23.2772 21.8557 21.8562 23.2768 20.1031 23.2768C18.3501 23.2768 16.929 21.8557 16.929 20.1027C16.929 18.3497 18.3501 16.9286 20.1031 16.9286C21.8562 16.9286 23.2772 18.3497 23.2772 20.1027Z" fill="#00AFBD"/>
</svg>
