<svg width="40" height="40" viewBox="0 0 40 40" fill="none" xmlns="http://www.w3.org/2000/svg">
<circle cx="19.8381" cy="19.8381" r="19.8381" fill="#F9EFE2"/>
<path fill-rule="evenodd" clip-rule="evenodd" d="M12.3949 10.4746H27.7576C28.8182 10.4746 29.6779 11.3344 29.6779 12.3949V27.7576C29.6779 28.8182 28.8182 29.6779 27.7576 29.6779H12.3949C11.3344 29.6779 10.4746 28.8182 10.4746 27.7576V12.3949C10.4746 11.3344 11.3344 10.4746 12.3949 10.4746Z" fill="#00AFBD"/>
<path fill-rule="evenodd" clip-rule="evenodd" d="M21.1475 20.9535H19.2031V18.9168H21.1475V17.8939C21.1475 16.2067 22.5463 14.8389 24.2718 14.8389H25.3133V16.8756H24.2718C23.6966 16.8756 23.2304 17.3315 23.2304 17.8939V18.9168H25.295V20.9535H23.2304V27.0592H21.1475V20.9535Z" fill="#F9EFE2"/>
</svg>
