<svg width="40" height="40" viewBox="0 0 40 40" fill="none" xmlns="http://www.w3.org/2000/svg">
<path d="M39.6762 19.8381C39.6762 30.7944 30.7944 39.6762 19.8381 39.6762C8.88183 39.6762 0 30.7944 0 19.8381C0 8.88183 8.88183 0 19.8381 0C30.7944 0 39.6762 8.88183 39.6762 19.8381Z" fill="#F9EFE2"/>
<path fill-rule="evenodd" clip-rule="evenodd" d="M28.0367 14.5009L29.2716 14.6511L28.7165 15.8099C28.4458 16.375 28.1748 16.9402 27.9036 17.5053C27.8714 17.625 27.8149 17.7299 27.7313 17.8665C27.6963 17.9236 27.577 18.1052 27.5714 18.1139C27.5399 18.1631 27.5166 18.2019 27.4998 18.2331V20.4048C27.4998 25.9621 22.3368 29.4936 17.4609 29.4936C16.4632 29.4936 15.7051 29.4438 14.8371 29.2465C13.4087 28.9218 12.3456 28.2763 11.8591 27.1482L11.3583 25.9868L12.5754 25.8702C13.6765 25.7648 14.6311 25.5463 15.3643 25.2537C13.3516 24.9165 12.2237 23.9957 12.2237 22.2664V21.3571H13.0966C13.2883 21.3571 13.4613 21.3409 13.6159 21.3112C12.1053 20.3704 11.3487 18.8612 11.3487 16.7678C11.3486 16.6786 11.3486 16.6786 11.348 16.5832C11.3424 15.5281 11.3968 14.9643 11.6741 14.2447C11.8518 13.7836 12.1087 13.3567 12.4544 12.9655L13.1131 12.2202L13.7535 12.9826C15.8639 15.495 17.9501 17.0192 20.0801 17.2035C20.0892 14.8853 21.7712 13.1308 24.0082 13.1308C25.051 13.1308 25.997 13.5432 26.7404 14.2867C27.1473 14.3738 27.5794 14.4452 28.0367 14.5009Z" fill="#00AFBD"/>
</svg>
